<?xml version="1.0" encoding="UTF-8" standalone="no"?>
<!DOCTYPE svg PUBLIC "-//W3C//DTD SVG 1.1//EN" "http://www.w3.org/Graphics/SVG/1.1/DTD/svg11.dtd">
<svg version="1.1" xmlns="http://www.w3.org/2000/svg" xmlns:xlink="http://www.w3.org/1999/xlink" preserveAspectRatio="xMidYMid meet" viewBox="0 0 640 640" width="640" height="640"><defs><path d="M383.24 269.46C395.44 269.46 405.34 279.35 405.34 291.56C405.34 299.07 405.34 299.51 405.34 307.02C405.34 319.22 395.44 329.12 383.24 329.12C355.66 329.12 295.02 329.12 267.44 329.12C255.23 329.12 245.34 319.22 245.34 307.02C245.34 299.51 245.34 299.07 245.34 291.56C245.34 279.35 255.23 269.46 267.44 269.46C295.02 269.46 355.66 269.46 383.24 269.46Z" id="l7ewgOq5u"></path><path d="M245.34 299.29L405.34 299.29L405.34 329.12L245.34 329.12L245.34 299.29Z" id="a48IXTZ0p6"></path></defs><g><g><use xlink:href="#l7ewgOq5u" opacity="1" fill="#ff1463" fill-opacity="1"></use></g><g><use xlink:href="#a48IXTZ0p6" opacity="1" fill="#ff1463" fill-opacity="1"></use></g></g></svg>